# xmcd
#
# Track frame offsets:
#	182
#	17132
#	29640
#
# Disc length: 604 seconds
#
# Revision: 1
# Processed by: cddbd v1.5.2PL0 Copyright (c) Steve Scherf et al.
# Submitted via: audiograbber 1.83.01
#
DISCID=1f025a03
DTITLE=Howard Carpendale - Maxi
DYEAR=1996
DGENRE=Schlager
TTITLE0=Kein Typ für eine Nacht
TTITLE1=Bin geboren in Durban
TTITLE2=Tausendmal
EXTD=YEAR: 1996
EXTT0=
EXTT1=
EXTT2=
PLAYORDER=
